<svg width="30" height="30" viewBox="0 0 30 30" fill="none" xmlns="http://www.w3.org/2000/svg">
<path d="M27.7515 14.4285C27.7515 14.4285 28.696 13.0519 27.3185 12.1083C25.9428 11.1647 24.9992 12.5413 24.9992 12.5413L20.6182 18.9304C20.468 18.6785 20.302 18.4298 20.1185 18.1846L26.1989 9.31672C26.1989 9.31672 27.1425 7.94095 25.7659 6.99734C24.3901 6.05291 23.4465 7.42952 23.4465 7.42952L17.7265 15.7701C17.5138 15.5957 17.2968 15.4222 17.0716 15.2511L23.7018 5.58153C23.7018 5.58153 24.6454 4.20576 23.2696 3.26216C21.8939 2.31772 20.9503 3.69432 20.9503 3.69432L14.3192 13.3631C14.0756 13.2129 13.8345 13.0836 13.5934 12.9476L19.7898 3.91041C19.7898 3.91041 20.7334 2.53464 19.3568 1.59104C17.981 0.646601 17.0374 2.02321 17.0374 2.02321L10.4847 11.5785L9.95995 12.3444L9.48857 13.0327C13.6167 15.8635 14.0097 21.1914 11.6511 24.6313C11.1789 25.3196 10.4914 24.8482 10.4914 24.8482C13.3222 20.7192 12.457 16.0796 8.32805 13.2488L9.5478 7.1567C9.5478 7.1567 10.0025 5.55066 8.3973 5.09596C6.79209 4.64126 6.33739 6.24647 6.33739 6.24647L4.93159 10.4213C4.37427 12.0766 3.78108 13.726 2.99599 15.2853C0.779239 19.6905 2.10328 25.166 6.284 28.0327C10.8435 31.1589 17.0758 29.9975 20.2027 25.438C20.3679 25.1961 20.5064 24.96 20.6382 24.7239L20.675 24.7497L27.7515 14.4285Z" fill="white"/>
<path d="M1.66861 5.80511H0C0.00176651 4.26605 0.613941 2.79052 1.70223 1.70224C2.79051 0.61395 4.26604 0.00177479 5.80511 8.58307e-06V1.66862C4.70845 1.66995 3.65708 2.10618 2.88163 2.88164C2.10617 3.65709 1.66994 4.70846 1.66861 5.80511Z" fill="white"/>
<path d="M3.30219 9.97665H1.63358C1.63358 5.37629 5.37628 1.63359 9.97664 1.63359V3.3022C6.29652 3.3022 3.30219 6.29653 3.30219 9.97665Z" fill="white"/>
<path d="M24.1599 30V28.3314C26.6628 28.3314 28.3314 26.6628 28.3314 24.1599H30C30 27.4971 27.4971 30 24.1599 30Z" fill="white"/>
<path d="M19.9883 28.3664V26.6978C23.3255 26.6978 26.6978 23.3256 26.6978 19.9883H28.3664C28.3664 24.9942 24.9942 28.3664 19.9883 28.3664Z" fill="white"/>
</svg>
