<svg width="26" height="29" viewBox="0 0 26 29" fill="none" xmlns="http://www.w3.org/2000/svg">
<path d="M10.11 1.9956C10.3889 1.60125 10.7327 1.30987 11.1109 1.14736C11.4891 0.984848 11.8901 0.956241 12.2781 1.06408C12.666 1.17192 13.0291 1.41287 13.3349 1.7655C13.6407 2.11813 13.8797 2.57152 14.0309 3.08538C14.182 3.59923 14.2405 4.15761 14.2011 4.7109C14.1618 5.26418 14.0258 5.79522 13.8052 6.25681C13.5847 6.7184 13.2865 7.09624 12.9371 7.35674C12.5877 7.61723 12.1979 7.75232 11.8024 7.74998H1M13.7108 27.0044C13.9897 27.3987 14.3335 27.6901 14.7117 27.8526C15.0899 28.0152 15.4909 28.0438 15.8789 27.9359C16.2668 27.8281 16.6299 27.5871 16.9357 27.2345C17.2415 26.8819 17.4805 26.4285 17.6317 25.9146C17.7828 25.4008 17.8413 24.8424 17.8019 24.2891C17.7626 23.7358 17.6266 23.2048 17.4061 22.7432C17.1855 22.2816 16.8873 21.9038 16.5379 21.6433C16.1885 21.3828 15.7987 21.2477 15.4032 21.25H1M19.8802 7.29436C20.2293 6.80479 20.6588 6.44371 21.1308 6.24306C21.6028 6.04242 22.1027 6.00838 22.5862 6.14396C23.0698 6.27955 23.5221 6.58058 23.9032 7.02042C24.2843 7.46027 24.5825 8.02538 24.7713 8.66578C24.9601 9.30617 25.0338 10.0021 24.9857 10.6921C24.9377 11.382 24.7695 12.0447 24.496 12.6215C24.2225 13.1983 23.8521 13.6714 23.4176 13.9991C22.983 14.3267 22.4978 14.4988 22.0047 14.5H1" stroke="white" stroke-width="2" stroke-linecap="round" stroke-linejoin="round"/>
</svg>
