<svg width="19" height="31" viewBox="0 0 19 31" fill="none" xmlns="http://www.w3.org/2000/svg">
<path d="M10.5556 31C9.10152 30.9946 7.70863 30.4261 6.68047 29.4185C5.65231 28.411 5.07223 27.046 5.06667 25.6211C5.06667 23.0765 8.86667 16.3115 9.62667 14.9668C9.729 14.8175 9.86726 14.6951 10.0293 14.6105C10.1912 14.5259 10.372 14.4816 10.5556 14.4816C10.7391 14.4816 10.9199 14.5259 11.0819 14.6105C11.2439 14.6951 11.3821 14.8175 11.4844 14.9668C12.2444 16.3115 16.0444 23.0765 16.0444 25.6211C16.0389 27.046 15.4588 28.411 14.4306 29.4185C13.4025 30.4261 12.0096 30.9946 10.5556 31ZM10.5556 17.6562C9.04842 20.1401 7.91101 22.8221 7.17778 25.6211C7.17778 26.499 7.53365 27.3409 8.16711 27.9617C8.80056 28.5825 9.65971 28.9312 10.5556 28.9312C11.4514 28.9312 12.3105 28.5825 12.944 27.9617C13.5775 27.3409 13.9333 26.499 13.9333 25.6211C13.2001 22.8221 12.0627 20.1401 10.5556 17.6562ZM4.22222 16.5184C3.10242 16.5184 2.02848 16.0825 1.23666 15.3065C0.444841 14.5306 0 13.4782 0 12.3808C0 10.4982 2.74445 5.59514 3.29333 4.6228C3.39567 4.47346 3.53393 4.35109 3.69592 4.26647C3.85791 4.18186 4.03866 4.1376 4.22222 4.1376C4.40579 4.1376 4.58654 4.18186 4.74853 4.26647C4.91052 4.35109 5.04878 4.47346 5.15111 4.6228C5.7 5.59514 8.44444 10.4982 8.44444 12.3808C8.44444 13.4782 7.9996 14.5306 7.20778 15.3065C6.41596 16.0825 5.34203 16.5184 4.22222 16.5184ZM4.22222 7.33293C3.27561 8.90787 2.56465 10.6078 2.11111 12.3808C2.11111 12.9295 2.33353 13.4557 2.72944 13.8437C3.12535 14.2316 3.66232 14.4496 4.22222 14.4496C4.78212 14.4496 5.31909 14.2316 5.715 13.8437C6.11091 13.4557 6.33333 12.9295 6.33333 12.3808C5.8798 10.6078 5.16884 8.90787 4.22222 7.33293ZM14.7778 12.3808C13.658 12.3808 12.584 11.9449 11.7922 11.1689C11.0004 10.393 10.5556 9.34056 10.5556 8.2432C10.5556 6.3606 13.3 1.45754 13.8489 0.485204C13.9512 0.335864 14.0895 0.213491 14.2515 0.128875C14.4135 0.044259 14.5942 0 14.7778 0C14.9613 0 15.1421 0.044259 15.3041 0.128875C15.4661 0.213491 15.6043 0.335864 15.7067 0.485204C16.2556 1.45754 19 6.3606 19 8.2432C19 9.34056 18.5552 10.393 17.7633 11.1689C16.9715 11.9449 15.8976 12.3808 14.7778 12.3808ZM14.7778 3.19533C13.8312 4.77027 13.1202 6.47024 12.6667 8.2432C12.6667 8.79188 12.8891 9.31809 13.285 9.70607C13.6809 10.094 14.2179 10.312 14.7778 10.312C15.3377 10.312 15.8746 10.094 16.2706 9.70607C16.6665 9.31809 16.8889 8.79188 16.8889 8.2432C16.4354 6.47024 15.7244 4.77027 14.7778 3.19533Z" fill="white"/>
</svg>
